<?xml version="1.0" standalone="no"?>
<!DOCTYPE svg PUBLIC "-//W3C//DTD SVG 20010904//EN"
 "http://www.w3.org/TR/2001/REC-SVG-20010904/DTD/svg10.dtd">
<svg version="1.0" xmlns="http://www.w3.org/2000/svg"
 width="273.000000pt" height="273.000000pt" viewBox="0 0 273.000000 273.000000"
 preserveAspectRatio="xMidYMid meet">
<metadata>
Created by potrace 1.14, written by Peter Selinger 2001-2017
</metadata>
<g transform="translate(0.000000,273.000000) scale(0.100000,-0.100000)"
fill="#000000" stroke="none">
<path d="M1284 2711 c4 -18 2 -21 -7 -12 -15 15 -27 14 -23 -1 1 -7 1 -10 -1
-5 -3 4 -10 4 -15 1 -7 -4 -8 -2 -4 4 4 7 3 12 -3 12 -5 0 -13 -4 -16 -10 -3
-5 -12 -10 -18 -10 -7 0 -6 4 3 10 13 8 12 10 -2 10 -10 0 -18 -8 -19 -17 0
-17 -1 -17 -7 -1 -8 19 -25 12 -35 -12 -4 -12 -6 -11 -6 3 -1 19 -16 23 -26 7
-3 -5 -20 -10 -36 -10 -18 0 -28 -4 -24 -10 3 -5 1 -10 -4 -10 -6 0 -11 5 -11
10 0 6 -5 10 -11 10 -5 0 -7 -5 -3 -12 5 -8 0 -9 -14 -6 -14 4 -20 2 -15 -5 4
-7 0 -8 -12 -3 -18 6 -18 6 1 -15 l19 -22 -26 17 c-24 15 -27 15 -32 1 -4 -8
-12 -15 -19 -15 -9 0 -9 3 2 10 12 7 10 9 -7 7 -12 0 -20 -4 -17 -8 7 -13 -23
-18 -36 -6 -7 7 -10 7 -7 2 8 -15 -8 -38 -27 -41 -9 -1 -13 2 -10 8 4 6 -5 2
-20 -7 -14 -10 -26 -13 -26 -9 0 5 -7 1 -15 -10 -8 -11 -19 -15 -27 -10 -7 4
-4 -3 7 -17 11 -13 13 -18 5 -12 -22 17 -63 13 -49 -4 8 -9 6 -11 -9 -8 -23 4
-77 -40 -67 -55 3 -6 -1 -7 -10 -3 -13 5 -14 7 -3 14 7 5 8 9 2 9 -19 0 -24
-12 -13 -32 9 -17 8 -18 -10 -9 -23 13 -34 2 -25 -26 5 -15 4 -15 -5 -3 -9 13
-15 8 -13 -11 1 -3 -11 -5 -25 -3 -19 2 -23 0 -14 -9 14 -14 14 -27 0 -27 -5
0 -7 5 -3 11 4 7 1 10 -7 7 -8 -3 -15 -10 -15 -16 -3 -25 -5 -27 -15 -12 -8
12 -10 9 -6 -12 2 -15 1 -25 -3 -23 -4 3 -13 -2 -20 -10 -7 -8 -19 -15 -26
-15 -17 0 -18 -16 -1 -24 6 -3 0 -3 -15 -1 -25 3 -27 1 -18 -15 9 -16 7 -18
-11 -15 -18 4 -19 2 -7 -12 9 -12 9 -15 1 -9 -7 4 -21 2 -30 -4 -17 -11 -17
-11 1 -6 16 6 17 4 6 -9 -10 -12 -10 -15 0 -15 8 0 10 -3 7 -6 -4 -4 -13 -2
-20 5 -12 9 -14 6 -11 -14 2 -22 0 -24 -12 -14 -12 10 -13 9 -8 -5 4 -11 2
-16 -6 -14 -7 2 -15 -3 -17 -10 -3 -6 1 -10 9 -9 7 2 10 2 6 0 -5 -3 -8 -12
-8 -21 0 -15 -2 -15 -10 -2 -8 13 -11 13 -22 1 -7 -8 -8 -11 -2 -8 7 4 14 0
18 -8 3 -8 0 -14 -7 -12 -7 1 -11 -6 -11 -16 2 -14 -1 -15 -12 -6 -12 10 -13
9 -8 -6 5 -12 4 -16 -3 -12 -6 4 -9 -3 -7 -18 1 -14 -3 -28 -8 -32 -6 -3 -8
-1 -4 5 3 6 2 13 -3 16 -5 4 -8 -5 -6 -20 2 -19 -1 -24 -13 -19 -12 4 -13 3
-2 -10 9 -11 9 -15 1 -15 -7 0 -9 -5 -5 -12 5 -7 2 -9 -9 -5 -11 4 -14 2 -11
-8 3 -8 13 -11 22 -9 15 5 14 4 -1 -6 -9 -6 -21 -9 -25 -6 -5 3 -9 -1 -9 -9 0
-8 3 -12 7 -10 3 2 6 -5 6 -15 0 -15 -3 -17 -15 -7 -12 9 -13 9 -7 0 4 -8 2
-13 -4 -13 -6 0 -8 -5 -5 -10 4 -6 11 -7 17 -4 7 5 8 2 4 -5 -5 -7 -15 -10
-24 -6 -13 5 -12 1 3 -15 14 -16 15 -19 3 -15 -17 7 -26 -9 -23 -42 1 -13 -2
-23 -7 -23 -4 0 -8 -5 -8 -11 0 -5 4 -8 8 -5 4 2 8 -4 8 -14 0 -15 -4 -17 -21
-8 -20 11 -20 11 -1 -11 15 -16 16 -20 4 -16 -11 5 -15 0 -13 -22 1 -16 7 -27
14 -25 7 1 10 -2 6 -8 -3 -6 -10 -8 -14 -6 -4 3 -12 -4 -19 -15 -9 -14 -9 -18
-1 -17 6 2 12 -9 13 -24 1 -14 -2 -24 -6 -22 -4 3 -8 -2 -8 -11 0 -10 -5 -13
-12 -9 -10 6 -10 5 -1 -8 7 -8 10 -18 6 -21 -3 -4 0 -13 6 -21 9 -11 9 -16 0
-22 -8 -5 -10 -3 -4 7 6 11 5 11 -5 2 -10 -9 -10 -15 4 -28 20 -20 20 -26 2
-19 -16 6 -16 -19 -1 -33 4 -4 5 -2 1 4 -5 9 -2 11 10 6 14 -5 13 -8 -7 -19
-13 -7 -19 -13 -12 -14 8 0 11 -15 10 -40 -2 -28 1 -40 11 -40 7 0 10 -5 7
-10 -4 -6 -12 -7 -18 -3 -9 5 -9 3 -1 -8 16 -21 26 -51 14 -44 -6 3 -10 1 -10
-4 0 -6 5 -11 11 -11 6 0 9 -8 7 -18 -3 -10 1 -23 9 -30 16 -15 17 -32 2 -32
-5 0 -8 4 -4 9 3 5 1 12 -4 15 -5 4 -8 -1 -7 -10 1 -9 10 -21 19 -26 10 -5 15
-13 12 -18 -3 -5 -1 -11 4 -15 6 -3 8 -12 5 -20 -4 -8 -10 -12 -15 -9 -5 3 -6
-2 -3 -10 3 -9 10 -16 14 -16 4 0 8 -12 8 -27 0 -15 5 -29 11 -31 6 -2 11 -12
11 -23 0 -10 5 -19 11 -19 8 0 7 -6 -2 -17 -10 -11 -10 -14 -1 -9 7 4 12 2 12
-4 0 -6 7 -18 15 -27 13 -12 13 -18 3 -31 -7 -9 -8 -13 -2 -9 6 3 20 0 30 -8
15 -12 16 -14 2 -9 -15 5 -16 3 -5 -20 7 -14 16 -26 20 -26 5 0 5 -10 1 -22
-6 -20 -5 -21 9 -10 9 8 18 9 21 3 4 -5 2 -12 -3 -16 -12 -7 -3 -35 11 -35 7
0 6 5 -1 13 -8 10 -7 14 3 14 15 0 16 -14 2 -36 -7 -10 -6 -12 4 -6 10 6 12 4
7 -9 -4 -9 -3 -15 2 -12 4 3 17 -2 27 -10 10 -9 13 -13 6 -9 -10 5 -10 1 -1
-19 9 -19 15 -23 25 -15 9 8 11 5 7 -10 -4 -15 -1 -21 11 -21 8 0 13 -6 11
-12 -5 -15 33 -61 64 -77 12 -7 20 -20 19 -29 -2 -11 3 -16 14 -14 10 2 18 -2
18 -8 0 -7 8 -9 22 -4 21 6 22 5 8 -11 -12 -15 -12 -17 -1 -10 11 6 13 4 7
-10 -5 -14 -4 -16 7 -7 17 14 28 6 20 -16 -4 -8 -2 -13 3 -10 9 4 55 -37 48
-44 -1 -2 6 -4 17 -4 21 0 17 5 -27 32 -15 9 -16 12 -3 19 8 4 11 5 7 0 -5 -5
6 -16 22 -26 17 -11 30 -25 30 -33 0 -8 9 -18 20 -21 12 -4 17 -11 13 -18 -4
-8 -1 -7 9 1 13 10 18 10 24 1 5 -8 3 -9 -6 -4 -9 5 -11 4 -6 -4 5 -8 12 -9
19 -2 8 6 19 5 31 -5 10 -7 22 -11 26 -9 4 2 7 -2 7 -10 0 -11 -7 -9 -29 6
-15 11 -28 17 -28 12 0 -4 19 -19 41 -31 24 -14 38 -18 34 -10 -3 7 0 5 8 -4
8 -10 17 -14 21 -10 4 4 12 -1 17 -11 6 -10 15 -14 22 -10 18 11 47 11 54 0 3
-6 1 -7 -5 -3 -7 4 -12 1 -12 -7 0 -10 8 -13 24 -10 13 3 27 -1 31 -8 6 -8 4
-10 -5 -4 -9 5 -11 4 -6 -3 5 -9 13 -9 28 -1 17 9 20 9 15 -4 -4 -11 0 -13 15
-9 13 3 19 1 15 -5 -3 -5 4 -9 16 -8 12 1 28 -3 36 -9 11 -8 13 -8 7 1 -5 9
-2 11 8 7 9 -3 14 -10 11 -15 -6 -9 29 -4 47 7 8 5 9 2 4 -12 -4 -10 -4 -15 0
-12 4 4 16 3 27 -3 14 -8 18 -8 13 0 -4 6 -4 11 1 12 4 0 18 2 30 3 16 2 20
-1 13 -9 -6 -7 -1 -11 16 -13 14 -1 23 2 20 6 -3 5 1 9 9 9 8 0 12 -4 10 -8
-3 -4 2 -10 11 -13 8 -3 12 -2 9 3 -3 5 -1 12 5 16 9 6 14 -7 11 -30 -1 -6 5
-2 13 8 12 15 15 15 26 2 15 -18 31 -10 23 12 -5 13 -1 12 23 -3 15 -11 25
-13 21 -6 -5 6 -5 12 0 13 4 0 16 2 26 4 14 3 17 -1 13 -13 -3 -9 5 -4 19 13
16 19 23 23 19 11 -5 -13 -4 -17 4 -12 7 4 12 2 12 -6 0 -7 9 -2 19 11 18 23
19 23 29 5 11 -18 11 -18 12 1 1 11 4 14 7 8 5 -14 24 -18 22 -5 -3 19 2 22
17 7 12 -12 19 -13 30 -4 7 6 19 7 25 3 8 -4 9 -3 5 4 -4 7 -2 12 4 12 6 0 8
6 4 13 -4 6 3 3 15 -8 12 -11 22 -15 21 -10 -5 21 1 36 10 30 6 -4 8 -11 5
-16 -4 -5 -1 -9 4 -9 6 0 11 6 11 14 0 8 5 18 12 22 6 4 8 3 4 -4 -3 -6 -2
-13 4 -17 5 -3 10 -1 10 5 0 6 4 9 9 6 5 -3 14 1 21 9 15 18 34 20 24 3 -5
-10 -3 -10 7 0 12 11 12 14 -1 22 -8 5 -10 10 -5 10 6 0 17 -6 24 -12 11 -11
13 -10 8 5 -6 15 -4 16 13 7 11 -6 20 -7 19 -3 -1 4 1 16 6 26 6 14 10 15 16
6 4 -7 14 -14 23 -15 13 -2 14 2 5 18 -10 18 -9 19 12 8 19 -11 21 -10 16 4
-4 9 -2 16 3 16 6 0 10 -5 10 -11 0 -6 13 3 29 20 19 21 31 27 34 19 4 -8 6
-7 6 4 1 9 6 20 13 24 7 4 8 3 4 -4 -4 -7 -2 -12 3 -12 6 0 11 5 11 10 0 6 5
10 11 10 6 0 23 9 39 20 15 11 31 16 35 12 5 -4 5 -1 1 6 -6 9 -15 7 -39 -9
-18 -12 -25 -15 -17 -6 8 9 33 25 55 36 22 11 33 20 25 21 -10 0 -7 5 8 16 12
8 20 19 17 23 -2 5 7 6 20 3 21 -4 24 -1 18 13 -5 14 -3 16 7 10 10 -6 12 -4
7 8 -4 11 -2 14 8 10 8 -3 12 -10 8 -16 -3 -6 -1 -7 5 -3 13 8 5 36 -11 36 -6
0 -7 3 -4 6 4 4 15 1 24 -7 10 -7 15 -10 11 -5 -9 10 14 36 26 29 4 -3 5 5 1
18 -7 22 -7 23 10 9 17 -14 17 -13 7 6 -13 24 -2 39 33 46 13 2 19 10 17 22
-2 13 1 16 10 10 9 -5 8 -2 -2 11 -14 17 -13 17 10 10 23 -7 24 -7 10 10 -13
17 -13 18 1 13 12 -5 16 -1 15 14 0 12 6 23 14 25 13 4 13 3 0 -7 -13 -10 -13
-11 0 -7 8 2 14 11 12 21 -2 9 2 16 7 16 5 0 8 9 6 21 -3 14 0 19 9 16 21 -8
28 4 13 21 -10 13 -9 14 2 7 11 -6 13 -4 8 8 -3 9 -3 16 1 16 19 -3 25 2 13
10 -12 7 -12 13 -3 24 7 7 9 17 5 21 -4 4 0 4 9 1 9 -4 18 0 22 10 3 9 2 13
-4 10 -6 -3 -7 1 -4 9 3 9 11 13 18 9 6 -4 4 2 -4 12 -9 11 -10 16 -2 11 7 -4
12 -2 12 4 0 6 4 9 8 6 4 -2 8 4 8 15 0 19 -1 19 -13 3 -7 -10 -15 -15 -18
-12 -4 3 5 15 19 26 25 19 37 40 16 27 -5 -3 -10 -1 -10 5 0 6 6 13 13 16 7 2
13 14 14 24 1 13 -2 18 -9 14 -7 -5 -8 -2 -4 5 5 7 14 10 22 7 8 -3 11 0 7 9
-3 8 -9 12 -14 9 -5 -3 -6 2 -3 10 3 9 10 14 14 11 5 -3 12 0 16 6 4 7 3 9 -3
6 -6 -4 -13 0 -17 8 -3 8 0 17 6 21 7 5 8 2 3 -7 -8 -12 -6 -12 8 0 20 16 22
22 6 19 -6 -2 -14 3 -17 11 -3 9 0 12 10 9 9 -4 15 0 15 8 0 8 -7 14 -16 15
-12 0 -11 3 4 9 12 5 14 9 6 9 -11 1 -10 4 4 14 14 11 15 16 5 22 -9 5 -11 4
-6 -3 4 -7 3 -12 -2 -12 -6 0 -9 11 -8 24 0 15 5 21 11 16 6 -5 10 4 10 25 0
18 -3 31 -7 29 -10 -6 2 27 16 45 9 12 8 13 -6 8 -10 -3 -18 -4 -18 0 0 3 8
12 18 20 16 14 16 14 -1 9 -11 -3 -16 -2 -12 4 3 6 0 10 -7 10 -9 0 -10 2 -1
8 6 4 11 24 11 44 0 20 3 41 7 47 3 6 -1 11 -10 11 -9 0 -13 5 -10 10 4 6 12
7 18 4 7 -4 1 5 -12 20 -20 21 -22 29 -12 39 10 9 11 8 5 -7 -6 -15 -4 -17 6
-11 9 6 11 4 5 -5 -5 -9 -4 -11 3 -6 8 5 9 13 2 25 -5 10 -6 22 -2 26 4 5 -1
5 -11 2 -13 -5 -16 -3 -10 6 4 6 8 22 9 34 1 16 -4 20 -20 17 -21 -3 -21 -3
-2 11 12 9 15 15 7 15 -9 0 -12 9 -9 25 3 13 2 23 -1 21 -3 -2 -15 6 -26 17
l-20 20 22 -12 c15 -7 24 -8 28 -1 4 6 1 9 -7 8 -8 -2 -13 6 -12 20 0 13 -5
22 -14 22 -9 0 -12 3 -9 6 3 4 2 15 -4 25 -7 14 -6 19 3 19 9 0 9 3 -2 9 -8 6
-18 7 -22 5 -11 -7 4 29 16 39 7 6 4 7 -6 4 -17 -6 -46 19 -34 30 3 3 6 1 6
-5 0 -7 5 -12 12 -12 7 0 6 6 -4 18 -9 9 -13 24 -11 32 4 10 0 8 -9 -3 -14
-18 -14 -18 -29 0 -13 16 -13 17 4 4 15 -12 17 -11 17 8 0 14 -4 20 -12 15 -8
-5 -9 -2 -5 9 4 12 1 17 -10 17 -13 0 -14 2 -2 17 10 11 10 14 2 9 -8 -4 -13
-2 -13 7 0 8 -7 18 -16 21 -9 3 -14 13 -11 20 3 8 -1 20 -8 26 -8 7 -12 17 -8
23 4 6 0 8 -10 4 -11 -4 -18 1 -22 14 -4 11 -11 16 -18 12 -7 -4 -7 0 1 10 12
14 11 16 -6 12 -13 -2 -19 2 -18 13 0 10 -5 16 -14 14 -12 -3 -13 -1 -2 9 6 7
12 18 12 23 0 6 -4 5 -8 -2 -6 -9 -12 -5 -22 13 -7 14 -19 25 -26 25 -7 0 -21
11 -32 25 -11 13 -22 21 -26 17 -4 -3 -4 1 -1 10 4 9 1 19 -6 24 -8 5 -10 3
-4 -7 6 -11 5 -11 -4 -3 -7 6 -14 20 -15 30 -2 12 -10 18 -21 16 -9 -2 -14 1
-11 7 7 11 -12 25 -34 26 -8 0 -14 7 -14 16 1 9 -4 16 -11 16 -7 0 -11 -7 -9
-16 2 -9 -2 -3 -10 14 -12 26 -14 27 -19 10 -4 -17 -5 -16 -6 4 -1 19 -4 21
-16 11 -12 -10 -13 -8 -10 10 4 22 4 22 -16 4 -15 -14 -20 -15 -17 -4 2 8 -2
14 -9 13 -7 -2 -10 4 -7 12 4 10 0 15 -11 15 -10 0 -13 4 -9 13 5 8 2 8 -9 -2
-15 -12 -17 -11 -17 2 0 9 -5 19 -12 23 -7 4 -8 3 -4 -4 11 -19 -5 -14 -21 6
-8 9 -12 12 -9 7 2 -6 -4 -11 -14 -11 -15 0 -17 3 -7 15 10 12 8 14 -10 9 -13
-4 -26 -2 -29 4 -3 5 -15 8 -25 5 -10 -3 -17 -1 -16 3 1 4 -2 7 -6 7 -5 -1
-13 5 -18 15 -6 10 -17 14 -31 11 -19 -4 -20 -3 -8 6 8 6 10 11 4 11 -5 0 -16
-6 -23 -12 -11 -11 -13 -10 -8 4 3 10 1 20 -5 24 -7 4 -8 3 -4 -4 4 -7 1 -12
-9 -12 -10 0 -13 -5 -9 -12 4 -7 3 -8 -4 -4 -6 4 -8 14 -5 22 5 14 3 15 -17 4
-19 -10 -22 -10 -18 2 7 17 -30 22 -49 6 -10 -8 -12 -7 -7 6 4 11 1 16 -11 16
-12 0 -15 -5 -11 -16 5 -14 4 -15 -9 -4 -8 7 -12 16 -10 20 3 5 -8 5 -25 0
-24 -7 -30 -6 -30 6 0 8 -5 12 -10 9 -6 -4 -7 -12 -4 -18 5 -8 3 -8 -7 1 -20
18 -33 15 -18 -5 13 -17 13 -17 -6 -1 -11 9 -33 19 -48 22 -23 4 -28 2 -23
-11 5 -13 4 -14 -9 -3 -8 7 -15 9 -15 4 0 -5 -8 0 -17 11 -13 16 -15 17 -10 3
4 -10 2 -18 -3 -18 -6 0 -10 5 -10 10 0 6 -5 10 -11 10 -5 0 -7 -4 -4 -10 3
-5 2 -10 -4 -10 -5 0 -15 8 -21 18 -10 15 -11 14 -6 -7z m366 -35 c0 -2 -7 -7
-16 -10 -8 -3 -12 -2 -9 4 6 10 25 14 25 6z m-980 -169 c0 -2 -10 -12 -22 -23
l-23 -19 19 23 c18 21 26 27 26 19z m1515 -86 c3 -5 1 -12 -5 -16 -5 -3 -10 1
-10 9 0 18 6 21 15 7z m-2060 -679 c-3 -3 -11 0 -18 7 -9 10 -8 11 6 5 10 -3
15 -9 12 -12z m-60 -292 c3 -5 1 -10 -4 -10 -6 0 -11 5 -11 10 0 6 2 10 4 10
3 0 8 -4 11 -10z m337 -981 l33 -32 -32 22 c-18 12 -35 26 -38 31 -12 19 4 10
37 -21z m68 -53 c0 -2 -7 -9 -15 -16 -13 -11 -14 -10 -9 4 5 14 24 23 24 12z
m1340 -302 c0 -8 -19 -13 -24 -6 -3 5 1 9 9 9 8 0 15 -2 15 -3z m-160 -49 c-7
-9 -15 -13 -19 -10 -3 3 1 10 9 15 21 14 24 12 10 -5z m-480 -15 c0 -5 -5 -10
-11 -10 -5 0 -7 5 -4 10 3 6 8 10 11 10 2 0 4 -4 4 -10z"/>
<path d="M1860 2621 c0 -6 4 -13 10 -16 6 -3 7 1 4 9 -7 18 -14 21 -14 7z"/>
<path d="M2035 2520 c3 -5 8 -10 11 -10 2 0 4 5 4 10 0 6 -5 10 -11 10 -5 0
-7 -4 -4 -10z"/>
<path d="M419 2338 c0 -2 -2 -11 -4 -21 -3 -15 -1 -16 11 -6 7 6 11 15 8 20
-5 9 -13 12 -15 7z"/>
<path d="M2280 2333 c0 -6 8 -17 18 -24 16 -13 16 -13 2 6 -8 11 -16 22 -17
24 -2 2 -3 0 -3 -6z"/>
<path d="M70 1051 c0 -5 8 -15 18 -22 15 -12 16 -12 5 2 -7 9 -10 19 -6 22 3
4 1 7 -5 7 -7 0 -12 -4 -12 -9z"/>
<path d="M2365 521 c-3 -5 -1 -12 4 -15 5 -3 11 1 15 9 6 16 -9 21 -19 6z"/>
<path d="M2225 359 c-4 -6 -5 -12 -2 -15 2 -3 7 2 10 11 7 17 1 20 -8 4z"/>
<path d="M1541 34 c0 -11 3 -14 6 -6 3 7 2 16 -1 19 -3 4 -6 -2 -5 -13z"/>
</g>
</svg>
